<svg width="18" height="12" viewBox="0 0 18 12" fill="none" xmlns="http://www.w3.org/2000/svg">
<path fill-rule="evenodd" clip-rule="evenodd" d="M16.6668 0.666748H15.6668C15.1145 0.666748 14.6668 1.11446 14.6668 1.66675V10.3334C14.6668 10.8857 15.1145 11.3334 15.6668 11.3334H16.6668C17.2191 11.3334 17.6668 10.8857 17.6668 10.3334V1.66675C17.6668 1.11446 17.2191 0.666748 16.6668 0.666748ZM11.0001 3.00008H12.0001C12.5524 3.00008 13.0001 3.4478 13.0001 4.00008V10.3334C13.0001 10.8857 12.5524 11.3334 12.0001 11.3334H11.0001C10.4479 11.3334 10.0001 10.8857 10.0001 10.3334V4.00008C10.0001 3.4478 10.4479 3.00008 11.0001 3.00008ZM7.33348 5.33341H6.33348C5.78119 5.33341 5.33348 5.78113 5.33348 6.33341V10.3334C5.33348 10.8857 5.78119 11.3334 6.33348 11.3334H7.33348C7.88576 11.3334 8.33348 10.8857 8.33348 10.3334V6.33341C8.33348 5.78113 7.88576 5.33341 7.33348 5.33341ZM2.66681 7.33341H1.66681C1.11452 7.33341 0.666809 7.78113 0.666809 8.33341V10.3334C0.666809 10.8857 1.11452 11.3334 1.66681 11.3334H2.66681C3.21909 11.3334 3.66681 10.8857 3.66681 10.3334V8.33341C3.66681 7.78113 3.21909 7.33341 2.66681 7.33341Z" fill="white"/>
</svg>
