<svg width="34" height="34" viewBox="0 0 34 34" fill="none" xmlns="http://www.w3.org/2000/svg">
<path fill-rule="evenodd" clip-rule="evenodd" d="M16.9314 32.2277C8.50362 32.2277 1.672 25.3961 1.672 16.9675C1.672 8.53975 8.50362 1.70813 16.9314 1.70813C25.3591 1.70813 32.1907 8.53975 32.1907 16.9675C32.1907 25.3952 25.3591 32.2277 16.9314 32.2277ZM25.4223 10.471H27.1774L22.6745 25.2751H20.9185L18.1165 16.0633H19.8716L21.7974 22.39L25.4223 10.4719V10.471ZM11.9632 19.6792L9.16212 10.4701H7.40702L10.2072 19.6792H11.9632ZM16.4147 10.471L11.9099 25.2751H13.665L18.1698 10.471H16.4147ZM17.0009 34.0009C26.3898 34.0009 34.0009 26.3897 34.0009 17C34 7.61206 26.3898 0 17 0C7.61026 0 0 7.61116 0 17C0 26.3888 7.61116 34.0009 17 34.0009H17.0009Z" fill="white"/>
</svg>
