<svg width="16" height="12" viewBox="0 0 16 12" fill="none" xmlns="http://www.w3.org/2000/svg">
<path fill-rule="evenodd" clip-rule="evenodd" d="M8.33048 2.60814C10.5464 2.60823 12.6775 3.45967 14.2835 4.98647C14.4044 5.10435 14.5977 5.10286 14.7168 4.98314L15.8728 3.81647C15.9331 3.75575 15.9667 3.6735 15.9662 3.58792C15.9657 3.50234 15.9312 3.42048 15.8702 3.36047C11.6551 -0.679076 5.00525 -0.679076 0.790151 3.36047C0.729092 3.42044 0.694448 3.50227 0.693885 3.58785C0.693322 3.67343 0.726886 3.7557 0.787151 3.81647L1.94348 4.98314C2.06251 5.10304 2.25596 5.10453 2.37682 4.98647C3.98297 3.45957 6.11437 2.60813 8.33048 2.60814ZM8.33048 6.4038C9.54797 6.40373 10.722 6.85626 11.6245 7.67347C11.7465 7.78945 11.9388 7.78694 12.0578 7.6678L13.2125 6.50114C13.2733 6.43994 13.307 6.35693 13.3062 6.27066C13.3053 6.1844 13.2699 6.10208 13.2078 6.04214C10.4596 3.48576 6.20368 3.48576 3.45548 6.04214C3.39341 6.10208 3.35799 6.18444 3.35717 6.27073C3.35636 6.35702 3.39022 6.44003 3.45115 6.50114L4.60548 7.6678C4.72447 7.78694 4.91675 7.78945 5.03882 7.67347C5.94069 6.8568 7.1138 6.40431 8.33048 6.4038ZM10.6435 8.95762C10.6452 9.04413 10.6112 9.12753 10.5495 9.18814L8.55215 11.2038C8.4936 11.263 8.41377 11.2964 8.33048 11.2964C8.24719 11.2964 8.16737 11.263 8.10882 11.2038L6.11115 9.18814C6.04944 9.12749 6.01549 9.04406 6.01732 8.95755C6.01915 8.87104 6.0566 8.78913 6.12082 8.73114C7.39639 7.65225 9.26458 7.65225 10.5402 8.73114C10.6043 8.78917 10.6417 8.87112 10.6435 8.95762Z" fill="white"/>
</svg>
